<svg width="32" height="32" viewBox="0 0 32 32" fill="none" xmlns="http://www.w3.org/2000/svg">
  <!-- 手掌背景 -->
  <rect width="32" height="32" rx="6" fill="#059669"/>
  
  <!-- 手掌圖案 -->
  <path d="M8 20C8 18 9 16 11 15C12 14.5 13 14.5 14 15C15 14 16 14 17 14.5C18 14 19 14 20 14.5C21 14 22 14.5 23 15.5C24 16.5 24 18 24 20C24 22 23 24 21 25C19 26 17 26 16 26C15 26 13 26 11 25C9 24 8 22 8 20Z" fill="white" opacity="0.9"/>
  
  <!-- 生命線 -->
  <path d="M12 18C12 20 13 22 14 24" stroke="#059669" stroke-width="1.5" stroke-linecap="round" fill="none"/>
  
  <!-- 智慧線 -->
  <path d="M11 19C13 19 15 19.5 17 20" stroke="#059669" stroke-width="1.5" stroke-linecap="round" fill="none"/>
  
  <!-- 裝飾點 -->
  <circle cx="16" cy="8" r="2" fill="#34d399" opacity="0.8"/>
</svg>